<?xml version="1.0" encoding="UTF-8"?>
<svg id="Calque_1" data-name="Calque 1" xmlns="http://www.w3.org/2000/svg" viewBox="0 0 514.2 105.9">
  <defs>
    <style>
      .cls-1 {
        fill: #0f15fd;
        stroke-width: 0px;
      }
    </style>
  </defs>
  <path class="cls-1" d="m68.79,74.46c-17.52.28-32.09,11.43-37.22,27.61,6.03,2.46,12.62,3.82,19.54,3.82,21.4,0,39.76-12.98,47.65-31.49-9.99-.04-19.98-.11-29.97.06"/>
  <path class="cls-1" d="m34.8,33.84c17.8-.2,32.66-11.31,37.88-26.79-6.57-3.02-13.87-4.71-21.58-4.71C29.7,2.34,11.33,15.34,3.45,33.87c10.45.03,20.91.09,31.36-.03"/>
  <path class="cls-1" d="m89.29,63.05c5.8-3.57,10.28-7.91,13.42-12.93-1.29-16.86-10.65-31.46-24.23-39.94-8.86,18.17-17.75,36.39-26.74,54.83,12.99,5.74,25.63,5.39,37.55-1.96"/>
  <path class="cls-1" d="m1.39,59.61c-.51.92-.97,1.85-1.39,2.8,2.54,15.81,12.24,29.21,25.67,36.81,9.12-18.71,18.2-37.31,27.26-55.9-12.95-7.82-39.21-5.89-51.54,16.3"/>
  <path class="cls-1" d="m442.68,22.48h-13.39v69.61h13.39V22.48ZM135.05,92.09h64.11v-11.98h-46.22l44.81-46.64v-10.99h-60.59v11.98h42.69l-44.81,46.64v10.99Zm213.59-19.97h-13.63c-1.91,6.52-6.97,9.4-13.78,9.4-8.74,0-14.51-4.79-14.51-15.78v-31h28.2v-12.26h-28.2V0h-13.39v65.74c0,18.88,11.27,28.18,27.9,28.18,14.63,0,25.1-7.21,27.41-21.8m65.02-30.05c-.28-11.98-10.57-21.42-27.2-21.42s-27.33,9.3-27.33,22.97c0,15.92,14.65,18.18,26.77,19.73,8.74,1.13,16.06,1.97,16.06,8.6,0,5.5-5.21,9.86-15.36,9.86s-15.08-4.09-15.36-9.86h-13.53c.42,12.68,11.41,21.98,28.89,21.98s28.88-9.16,28.88-23.25c0-15.92-14.8-18.18-26.91-19.73-8.6-1.13-15.92-1.83-15.92-8.45,0-5.5,5.07-9.72,13.95-9.72s13.39,3.94,13.81,9.3h13.24Z"/>
  <path class="cls-1" d="m514.2,72.12h-13.63c-1.92,6.52-6.97,9.4-13.78,9.4-8.74,0-14.51-4.79-14.51-15.78v-31h28.2v-12.26h-28.2V0h-13.39v65.74c0,18.88,11.27,28.18,27.9,28.18,14.63,0,25.11-7.21,27.41-21.8"/>
  <path class="cls-1" d="m267.33,55.55c0,13.06-10.72,23.64-23.93,23.64s-23.93-10.58-23.93-23.64,10.72-23.64,23.93-23.64,23.93,10.58,23.93,23.64m12.97,36.54v-36.54h-.03c-.34-19.55-16.7-35.3-36.87-35.3s-36.91,16.08-36.91,35.92,16.52,35.92,36.91,35.92c9.14,0,17.49-3.25,23.93-8.61v8.61h12.97Z"/>
</svg>